<svg width="39" height="36" viewBox="0 0 39 36" fill="none" xmlns="http://www.w3.org/2000/svg">
<path d="M22.3029 12.1391L25.6645 15.4942M0.961339 31.1138L26.8663 7.92068C27.4371 7.40961 28.315 7.45716 28.827 8.02688L30.2422 9.60139C30.7542 10.1711 30.7066 11.0473 30.1358 11.5583L4.23081 34.7515C3.65998 35.2625 2.78213 35.215 2.27007 34.6453L0.85493 33.0708C0.342872 32.501 0.390513 31.6249 0.961339 31.1138ZM23.3884 1.10571C22.9363 2.09541 22.6876 2.96386 22.6752 3.84775C22.6625 4.75331 22.8981 5.64964 23.3745 6.68455C22.4063 6.24145 21.5435 6.03241 20.6451 6.08303C19.7442 6.1338 18.834 6.44444 17.7716 6.99358C18.2672 5.96028 18.5593 5.06315 18.5854 4.16863C18.612 3.25502 18.3611 2.3725 17.8206 1.37598C18.8846 1.78748 19.7954 1.9792 20.6982 1.92831C21.5805 1.87859 22.4315 1.59857 23.3884 1.10571ZM36.0628 2.65221C35.7105 3.46195 35.518 4.18256 35.5136 4.91589C35.5091 5.67021 35.7036 6.41446 36.0894 7.26068C35.2935 6.91437 34.575 6.75274 33.8283 6.79847C33.0791 6.84442 32.3261 7.09803 31.4614 7.54047C31.8495 6.69541 32.0771 5.95101 32.0929 5.208C32.109 4.4461 31.9026 3.71197 31.4668 2.89578C32.3402 3.21782 33.0978 3.36606 33.8491 3.31998C34.5805 3.27512 35.2842 3.0475 36.0628 2.65221ZM37.5 12.9437C37.0654 13.3869 36.7476 13.8241 36.5423 14.3182C36.3288 14.8319 36.2447 15.3886 36.2566 16.0485C35.816 15.6208 35.3679 15.323 34.8475 15.1475C34.3262 14.9718 33.7518 14.9257 33.0704 14.9709C33.538 14.515 33.8847 14.0713 34.1007 13.573C34.3245 13.0564 34.3994 12.502 34.3503 11.8476C34.8467 12.2822 35.3237 12.5828 35.8487 12.7597C36.3546 12.9302 36.8878 12.9803 37.5 12.9437Z" stroke="black"/>
</svg>
